<?xml version="1.0" standalone="no"?>
<!DOCTYPE svg PUBLIC "-//W3C//DTD SVG 20010904//EN"
 "http://www.w3.org/TR/2001/REC-SVG-20010904/DTD/svg10.dtd">
<svg version="1.0" xmlns="http://www.w3.org/2000/svg"
 width="512.000000pt" height="512.000000pt" viewBox="0 0 512.000000 512.000000"
 preserveAspectRatio="xMidYMid meet">

<g transform="translate(0.000000,512.000000) scale(0.100000,-0.100000)"
fill="#000000" stroke="none">
<path d="M1148 3779 c-16 -9 -18 -30 -18 -204 l0 -195 -269 0 c-232 0 -272 -2
-285 -16 -19 -19 -21 -58 -3 -73 9 -7 105 -12 283 -13 l269 -3 3 -152 3 -153
-485 0 c-427 0 -486 -2 -500 -16 -20 -19 -21 -58 -3 -73 10 -7 161 -12 498
-13 l484 -3 3 -127 3 -128 -294 0 c-272 0 -295 -1 -310 -18 -22 -24 -21 -45 1
-65 16 -15 53 -17 310 -17 l292 0 0 -230 0 -230 -37 -15 c-148 -62 -160 -256
-21 -324 40 -19 61 -21 235 -21 l192 0 24 -52 c32 -71 98 -135 176 -171 168
-79 376 -5 462 164 l29 59 780 0 779 0 28 -56 c35 -72 116 -146 191 -175 83
-33 189 -31 264 4 75 33 151 106 184 173 l26 54 139 0 c76 0 150 5 166 11 34
13 80 55 99 91 18 34 18 109 0 151 -16 40 -69 86 -107 94 l-29 6 0 126 c0 82
-5 148 -15 186 -49 188 -212 335 -392 353 l-68 7 -212 300 c-117 165 -224 315
-238 333 l-26 32 -239 0 -240 0 0 183 c0 149 -3 187 -16 205 l-15 22 -1042 0
c-689 -1 -1048 -4 -1059 -11z m2022 -909 l0 -820 -538 0 -537 0 -50 35 c-121
86 -277 86 -405 0 l-52 -35 -179 0 -179 0 0 230 0 230 112 0 c90 0 115 3 130
17 22 20 23 41 1 65 -14 15 -32 18 -130 18 l-113 0 0 130 0 130 74 0 c77 0
106 13 106 47 0 38 -30 53 -107 53 l-73 0 0 155 0 155 193 0 c137 0 196 3 205
12 19 19 15 66 -7 78 -12 6 -96 10 -205 10 l-186 0 0 155 0 155 970 0 970 0 0
-820z m741 125 l199 -280 -277 -3 c-153 -1 -283 0 -290 2 -9 4 -13 56 -15 198
l-3 193 -27 9 c-22 8 -32 6 -48 -9 -19 -17 -20 -30 -20 -238 0 -191 2 -223 17
-239 15 -17 42 -18 433 -18 460 0 476 -2 566 -63 27 -17 64 -53 84 -79 59 -79
72 -126 78 -280 l4 -138 -130 0 -130 0 -52 35 c-128 86 -277 87 -406 1 l-54
-36 -280 0 -280 0 0 615 0 615 216 -2 217 -3 198 -280z m-1995 -960 c60 -18
127 -72 157 -129 34 -64 31 -165 -7 -234 -49 -87 -124 -132 -223 -132 -153 0
-263 121 -250 276 8 102 72 183 174 220 50 17 88 17 149 -1z m2292 -14 c188
-97 187 -369 -3 -457 -179 -84 -385 61 -362 256 21 174 213 279 365 201z
m-2697 -91 c-8 -31 -21 -86 -26 -112 l-5 -28 -174 0 c-160 0 -175 2 -200 21
-46 36 -32 111 24 132 8 3 98 5 200 4 159 -2 184 -4 181 -17z m2259 18 c0 -2
-7 -25 -15 -52 -8 -27 -15 -62 -15 -78 l0 -28 -770 0 -770 0 0 28 c0 16 -7 51
-15 78 -8 27 -15 50 -15 52 0 1 360 2 800 2 440 0 800 -1 800 -2z m939 -9 c55
-19 69 -82 26 -124 -23 -24 -30 -25 -150 -25 -92 0 -127 3 -129 13 -2 6 -8 35
-13 62 -6 28 -13 58 -18 68 -7 16 3 17 122 17 72 0 144 -5 162 -11z"/>
<path d="M2068 3548 c-18 -14 -478 -1213 -478 -1246 0 -10 9 -27 20 -37 16
-15 24 -16 52 -6 119 42 1205 456 1216 464 22 17 13 57 -32 153 -137 289 -344
499 -618 629 -113 53 -138 60 -160 43z m160 -158 c219 -113 390 -288 506 -519
21 -40 34 -77 29 -82 -5 -5 -26 -15 -48 -22 l-40 -14 -54 81 c-133 201 -305
369 -486 476 -22 13 -42 25 -44 26 -4 4 29 104 36 104 2 0 48 -22 101 -50z
m-66 -222 l33 -27 -20 -38 c-27 -51 -94 -86 -153 -80 -24 3 -45 7 -47 9 -4 4
59 181 71 200 6 9 70 -26 116 -64z m162 -135 c59 -54 127 -133 185 -218 68
-98 69 -100 30 -114 -36 -13 -49 -8 -49 20 0 27 -33 89 -62 116 -49 46 -142
66 -201 44 -40 -16 -99 -73 -118 -116 -24 -52 -23 -119 1 -174 11 -24 19 -45
18 -45 -16 -9 -61 -26 -62 -24 -1 2 -11 22 -21 46 -19 43 -115 142 -139 142
-7 0 -20 6 -30 13 -18 13 -17 18 19 114 l37 101 37 -10 c50 -14 139 -4 187 20
40 20 114 93 114 112 0 17 11 11 54 -27z m15 -258 c29 -15 48 -50 53 -99 3
-28 -1 -31 -67 -57 -91 -36 -100 -36 -119 5 -21 45 -20 74 4 114 31 50 78 64
129 37z m-441 -182 c33 -24 62 -70 62 -97 0 -9 -38 -29 -105 -55 -58 -23 -110
-41 -115 -41 -9 0 23 97 64 193 13 33 19 37 38 32 13 -4 38 -18 56 -32z"/>
<path d="M1797 1936 c-97 -35 -134 -133 -84 -220 70 -123 258 -87 282 54 5 32
2 51 -17 88 -36 72 -109 104 -181 78z m82 -110 c22 -26 9 -70 -23 -81 -24 -8
-31 -6 -47 14 -23 28 -24 45 -3 65 19 20 58 21 73 2z"/>
<path d="M4047 1936 c-51 -19 -73 -40 -93 -92 -49 -128 86 -248 212 -188 51
25 88 92 81 151 -11 98 -109 161 -200 129z m88 -116 c15 -17 16 -24 7 -45 -15
-32 -37 -41 -66 -27 -29 13 -38 45 -19 71 18 27 55 27 78 1z"/>
<path d="M228 3368 c-24 -20 -28 -44 -12 -67 14 -19 25 -21 118 -21 108 0 126
7 126 45 0 42 -29 55 -126 55 -57 0 -96 -5 -106 -12z"/>
</g>
</svg>
